<?xml version="1.0" encoding="utf-8"?>
<!-- Generator: Adobe Illustrator 21.0.0, SVG Export Plug-In . SVG Version: 6.00 Build 0)  -->
<svg version="1.1" xmlns="http://www.w3.org/2000/svg" xmlns:xlink="http://www.w3.org/1999/xlink" x="0px" y="0px"
	 viewBox="0 0 500 500" style="enable-background:new 0 0 500 500;" xml:space="preserve">
<style type="text/css">
	.st0{display:none;}
	.st1{display:inline;}
	.st2{display:none;opacity:0.5;}
	.st3{display:inline;fill:#FFFFFF;}
</style>
<g id="circle" class="st0">
	<g class="st1">
		<path d="M250,1c33.6,0,66.2,6.6,96.9,19.6c29.7,12.5,56.3,30.5,79.1,53.4s40.8,49.5,53.4,79.1c13,30.7,19.6,63.3,19.6,96.9
			s-6.6,66.2-19.6,96.9c-12.5,29.7-30.5,56.3-53.4,79.1s-49.5,40.8-79.1,53.4c-30.7,13-63.3,19.6-96.9,19.6s-66.2-6.6-96.9-19.6
			c-29.7-12.5-56.3-30.5-79.1-53.4s-40.8-49.5-53.4-79.1C7.6,316.2,1,283.6,1,250s6.6-66.2,19.6-96.9c12.5-29.7,30.5-56.3,53.4-79.1
			s49.5-40.8,79.1-53.4C183.8,7.6,216.4,1,250,1 M250,0C111.9,0,0,111.9,0,250s111.9,250,250,250s250-111.9,250-250S388.1,0,250,0
			L250,0z"/>
	</g>
</g>
<g id="Layer_1">
	<g id="white" class="st2">
		<polygon class="st3" points="31.2,285 57.8,285 104.5,215 77.9,215 31.2,285 		"/>
		<polygon class="st3" points="72.1,276.2 77.9,285 104.5,285 85.4,256.3 72.1,276.2 		"/>
		<polygon class="st3" points="31.2,272.3 31.2,215 53.4,215 53.4,239.2 31.2,272.3 		"/>
		<polygon class="st3" points="271.7,226 260,261.1 268,285 291.3,285 271.7,226 		"/>
		<polygon class="st3" points="244.6,215 268,215 244.6,285 221.3,285 244.6,215 		"/>
		<polygon class="st3" points="449.1,226 437.4,261.1 445.4,285 468.7,285 449.1,226 		"/>
		<polygon class="st3" points="422.1,215 445.4,215 422.1,285 398.7,285 422.1,215 		"/>
		<polygon class="st3" points="178.3,226 166.6,261.1 174.6,285 197.9,285 178.3,226 		"/>
		<polygon class="st3" points="151.2,215 174.6,215 151.2,285 127.9,285 151.2,215 		"/>
		<polygon class="st3" points="360.4,273.9 348.7,238.9 356.7,215 380.1,215 360.4,273.9 		"/>
		<polygon class="st3" points="333.4,285 356.7,285 333.4,215 310,215 333.4,285 		"/>
	</g>
	<g id="black">
		<polygon points="31.2,285 57.8,285 104.5,215 77.9,215 31.2,285 		"/>
		<polygon points="72.1,276.2 77.9,285 104.5,285 85.4,256.3 72.1,276.2 		"/>
		<polygon points="31.2,272.3 31.2,215 53.4,215 53.4,239.2 31.2,272.3 		"/>
		<polygon points="271.7,226 260,261.1 268,285 291.3,285 271.7,226 		"/>
		<polygon points="244.6,215 268,215 244.6,285 221.3,285 244.6,215 		"/>
		<polygon points="449.1,226 437.4,261.1 445.4,285 468.7,285 449.1,226 		"/>
		<polygon points="422.1,215 445.4,215 422.1,285 398.7,285 422.1,215 		"/>
		<polygon points="178.3,226 166.6,261.1 174.6,285 197.9,285 178.3,226 		"/>
		<polygon points="151.2,215 174.6,215 151.2,285 127.9,285 151.2,215 		"/>
		<polygon points="360.4,273.9 348.7,238.9 356.7,215 380.1,215 360.4,273.9 		"/>
		<polygon points="333.4,285 356.7,285 333.4,215 310,215 333.4,285 		"/>
	</g>
</g>
</svg>
